<svg xmlns="http://www.w3.org/2000/svg" viewBox="0 0 9 9" shape-rendering="crispEdges">
  <g fill="#0847a6">
    <rect x="1" y="1" width="1" height="1" />
    <rect x="7" y="1" width="1" height="1" />
    <rect x="1" y="2" width="1" height="1" />
    <rect x="7" y="2" width="1" height="1" />
    <rect x="0" y="6" width="1" height="1" />
    <rect x="8" y="6" width="1" height="1" />
  </g>
  <g fill="#0e78f1">
    <rect x="2" y="2" width="1" height="1" />
    <rect x="6" y="2" width="1" height="1" />
    <rect x="1" y="3" width="7" height="1" />
    <rect x="1" y="4" width="1" height="1" />
    <rect x="3" y="4" width="3" height="1" />
    <rect x="7" y="4" width="1" height="1" />
    <rect x="0" y="5" width="9" height="1" />
    <rect x="1" y="6" width="3" height="1" />
    <rect x="5" y="6" width="3" height="1" />
    <rect x="2" y="7" width="5" height="1" />
  </g>
  <g fill="#101828">
    <rect x="2" y="4" width="1" height="1" />
    <rect x="6" y="4" width="1" height="1" />
    <rect x="4" y="6" width="1" height="1" />
  </g>
</svg>
